<svg xmlns="http://www.w3.org/2000/svg" xmlns:xlink="http://www.w3.org/1999/xlink" contentStyleType="text/css" height="413px" preserveAspectRatio="none" style="width:577px;height:413px;background:#FFFFFF;" version="1.1" viewBox="0 0 577 413" width="577px" zoomAndPan="magnify"><defs/><g><text fill="#000000" font-family="sans-serif" font-size="14" lengthAdjust="spacing" textLength="119" x="230.75" y="401.2451">Figure A.2: Home</text><line style="stroke:#181818;stroke-width:0.5;stroke-dasharray:5.0,5.0;" x1="54" x2="54" y1="83.5938" y2="308.6563"/><line style="stroke:#181818;stroke-width:0.5;stroke-dasharray:5.0,5.0;" x1="223" x2="223" y1="83.5938" y2="308.6563"/><line style="stroke:#181818;stroke-width:0.5;stroke-dasharray:5.0,5.0;" x1="533.5" x2="533.5" y1="83.5938" y2="308.6563"/><text fill="#000000" font-family="sans-serif" font-size="14" lengthAdjust="spacing" textLength="93" x="5" y="80.292">Social Worker</text><ellipse cx="54.5" cy="15.7969" fill="#E2E2F0" rx="8" ry="8" style="stroke:#181818;stroke-width:0.5;"/><path d="M54.5,23.7969 L54.5,50.7969 M41.5,31.7969 L67.5,31.7969 M54.5,50.7969 L41.5,65.7969 M54.5,50.7969 L67.5,65.7969 " fill="none" style="stroke:#181818;stroke-width:0.5;"/><text fill="#000000" font-family="sans-serif" font-size="14" lengthAdjust="spacing" textLength="93" x="5" y="320.6514">Social Worker</text><ellipse cx="54.5" cy="332.4531" fill="#E2E2F0" rx="8" ry="8" style="stroke:#181818;stroke-width:0.5;"/><path d="M54.5,340.4531 L54.5,367.4531 M41.5,348.4531 L67.5,348.4531 M54.5,367.4531 L41.5,382.4531 M54.5,367.4531 L67.5,382.4531 " fill="none" style="stroke:#181818;stroke-width:0.5;"/><rect fill="#E2E2F0" height="30.2969" rx="2.5" ry="2.5" style="stroke:#181818;stroke-width:0.5;" width="73" x="187" y="52.2969"/><text fill="#000000" font-family="sans-serif" font-size="14" lengthAdjust="spacing" textLength="59" x="194" y="72.292">FieldApp</text><rect fill="#E2E2F0" height="30.2969" rx="2.5" ry="2.5" style="stroke:#181818;stroke-width:0.5;" width="73" x="187" y="307.6563"/><text fill="#000000" font-family="sans-serif" font-size="14" lengthAdjust="spacing" textLength="59" x="194" y="327.6514">FieldApp</text><text fill="#000000" font-family="sans-serif" font-size="14" lengthAdjust="spacing" textLength="80" x="490.5" y="63.9951">Health Data</text><text fill="#000000" font-family="sans-serif" font-size="14" lengthAdjust="spacing" textLength="60" x="500.5" y="80.292">Manager</text><path d="M515.5,15 C515.5,5 533.5,5 533.5,5 C533.5,5 551.5,5 551.5,15 L551.5,41 C551.5,51 533.5,51 533.5,51 C533.5,51 515.5,51 515.5,41 L515.5,15 " fill="#E2E2F0" style="stroke:#181818;stroke-width:1.5;"/><path d="M515.5,15 C515.5,25 533.5,25 533.5,25 C533.5,25 551.5,25 551.5,15 " fill="none" style="stroke:#181818;stroke-width:1.5;"/><text fill="#000000" font-family="sans-serif" font-size="14" lengthAdjust="spacing" textLength="80" x="490.5" y="320.6514">Health Data</text><text fill="#000000" font-family="sans-serif" font-size="14" lengthAdjust="spacing" textLength="60" x="500.5" y="336.9482">Manager</text><path d="M515.5,350.25 C515.5,340.25 533.5,340.25 533.5,340.25 C533.5,340.25 551.5,340.25 551.5,350.25 L551.5,376.25 C551.5,386.25 533.5,386.25 533.5,386.25 C533.5,386.25 515.5,386.25 515.5,376.25 L515.5,350.25 " fill="#E2E2F0" style="stroke:#181818;stroke-width:1.5;"/><path d="M515.5,350.25 C515.5,360.25 533.5,360.25 533.5,360.25 C533.5,360.25 551.5,360.25 551.5,350.25 " fill="none" style="stroke:#181818;stroke-width:1.5;"/><polygon fill="#181818" points="211.5,110.7266,221.5,114.7266,211.5,118.7266,215.5,114.7266" style="stroke:#181818;stroke-width:1.0;"/><line style="stroke:#181818;stroke-width:1.0;" x1="54.5" x2="217.5" y1="114.7266" y2="114.7266"/><text fill="#000000" font-family="sans-serif" font-size="13" lengthAdjust="spacing" textLength="145" x="61.5" y="109.6606">Collect medication info</text><polygon fill="#181818" points="521.5,154.9922,531.5,158.9922,521.5,162.9922,525.5,158.9922" style="stroke:#181818;stroke-width:1.0;"/><line style="stroke:#181818;stroke-width:1.0;" x1="223.5" x2="527.5" y1="158.9922" y2="158.9922"/><text fill="#000000" font-family="sans-serif" font-size="13" lengthAdjust="spacing" textLength="134" x="230.5" y="138.7935">POST SMP-Bundle-Tx</text><text fill="#000000" font-family="sans-serif" font-size="13" lengthAdjust="spacing" textLength="286" x="230.5" y="153.9263">(Medication List and Medication Statements)</text><polygon fill="#181818" points="234.5,184.125,224.5,188.125,234.5,192.125,230.5,188.125" style="stroke:#181818;stroke-width:1.0;"/><line style="stroke:#181818;stroke-width:1.0;stroke-dasharray:2.0,2.0;" x1="228.5" x2="532.5" y1="188.125" y2="188.125"/><text fill="#000000" font-family="sans-serif" font-size="13" lengthAdjust="spacing" textLength="82" x="240.5" y="183.0591">Confirmation</text><polygon fill="#181818" points="211.5,213.2578,221.5,217.2578,211.5,221.2578,215.5,217.2578" style="stroke:#181818;stroke-width:1.0;"/><line style="stroke:#181818;stroke-width:1.0;" x1="54.5" x2="217.5" y1="217.2578" y2="217.2578"/><text fill="#000000" font-family="sans-serif" font-size="13" lengthAdjust="spacing" textLength="136" x="61.5" y="212.1919">Add new medications</text><polygon fill="#181818" points="521.5,257.5234,531.5,261.5234,521.5,265.5234,525.5,261.5234" style="stroke:#181818;stroke-width:1.0;"/><line style="stroke:#181818;stroke-width:1.0;" x1="223.5" x2="527.5" y1="261.5234" y2="261.5234"/><text fill="#000000" font-family="sans-serif" font-size="13" lengthAdjust="spacing" textLength="134" x="230.5" y="241.3247">POST SMP-Bundle-Tx</text><text fill="#000000" font-family="sans-serif" font-size="13" lengthAdjust="spacing" textLength="259" x="230.5" y="256.4575">(updated list and Medication Statement)</text><polygon fill="#181818" points="234.5,286.6563,224.5,290.6563,234.5,294.6563,230.5,290.6563" style="stroke:#181818;stroke-width:1.0;"/><line style="stroke:#181818;stroke-width:1.0;stroke-dasharray:2.0,2.0;" x1="228.5" x2="532.5" y1="290.6563" y2="290.6563"/><text fill="#000000" font-family="sans-serif" font-size="13" lengthAdjust="spacing" textLength="82" x="240.5" y="285.5903">Confirmation</text><!--SRC=[XOyzQyCm48Pt_Oh3KpgeGqTJ2cg2yH3JW09UibobIo8gduHyfltvjTD2FQNhUy-z7-Wa5QXiSW4ZzAbyKAa0Hx2zobWak92H1Pf0qPkSbrDZb4V1Tnm9gfOmoXLsit3Y3XallmRjhbFAzg1VveSQjYb6SW83-U1GGc88V4wgCGinmpKStkmHR7VGhnFxIFhuTU9DzyVlmoY0x66bMK6XWLZ6XyNgMUiVhstYSoZ33LgrCDu3q-UgnVXlWodFQyb3l1T_9rqvp3Uu2PUf49Z7fnhQDD0t]--></g></svg>