<svg xmlns="http://www.w3.org/2000/svg" xmlns:xlink="http://www.w3.org/1999/xlink" contentStyleType="text/css" height="469px" preserveAspectRatio="none" style="width:569px;height:469px;background:#FFFFFF;" version="1.1" viewBox="0 0 569 469" width="569px" zoomAndPan="magnify"><defs/><g><text fill="#000000" font-family="sans-serif" font-size="14" lengthAdjust="spacing" textLength="210" x="181.25" y="457.2451">Figure B.2: Hospital Treatment</text><rect fill="none" height="59.2656" style="stroke:#000000;stroke-width:1.5;" width="227" x="194.5" y="259.2578"/><line style="stroke:#181818;stroke-width:0.5;stroke-dasharray:5.0,5.0;" x1="45" x2="45" y1="83.5938" y2="364.6563"/><line style="stroke:#181818;stroke-width:0.5;stroke-dasharray:5.0,5.0;" x1="255.5" x2="255.5" y1="83.5938" y2="364.6563"/><line style="stroke:#181818;stroke-width:0.5;stroke-dasharray:5.0,5.0;" x1="525.5" x2="525.5" y1="83.5938" y2="364.6563"/><text fill="#000000" font-family="sans-serif" font-size="14" lengthAdjust="spacing" textLength="75" x="5" y="80.292">Care Team</text><ellipse cx="45.5" cy="15.7969" fill="#E2E2F0" rx="8" ry="8" style="stroke:#181818;stroke-width:0.5;"/><path d="M45.5,23.7969 L45.5,50.7969 M32.5,31.7969 L58.5,31.7969 M45.5,50.7969 L32.5,65.7969 M45.5,50.7969 L58.5,65.7969 " fill="none" style="stroke:#181818;stroke-width:0.5;"/><text fill="#000000" font-family="sans-serif" font-size="14" lengthAdjust="spacing" textLength="75" x="5" y="376.6514">Care Team</text><ellipse cx="45.5" cy="388.4531" fill="#E2E2F0" rx="8" ry="8" style="stroke:#181818;stroke-width:0.5;"/><path d="M45.5,396.4531 L45.5,423.4531 M32.5,404.4531 L58.5,404.4531 M45.5,423.4531 L32.5,438.4531 M45.5,423.4531 L58.5,438.4531 " fill="none" style="stroke:#181818;stroke-width:0.5;"/><rect fill="#E2E2F0" height="30.2969" rx="2.5" ry="2.5" style="stroke:#181818;stroke-width:0.5;" width="102" x="204.5" y="52.2969"/><text fill="#000000" font-family="sans-serif" font-size="14" lengthAdjust="spacing" textLength="88" x="211.5" y="72.292">Hospital EHR</text><rect fill="#E2E2F0" height="30.2969" rx="2.5" ry="2.5" style="stroke:#181818;stroke-width:0.5;" width="102" x="204.5" y="363.6563"/><text fill="#000000" font-family="sans-serif" font-size="14" lengthAdjust="spacing" textLength="88" x="211.5" y="383.6514">Hospital EHR</text><text fill="#000000" font-family="sans-serif" font-size="14" lengthAdjust="spacing" textLength="80" x="482.5" y="63.9951">Health Data</text><text fill="#000000" font-family="sans-serif" font-size="14" lengthAdjust="spacing" textLength="60" x="492.5" y="80.292">Manager</text><path d="M507.5,15 C507.5,5 525.5,5 525.5,5 C525.5,5 543.5,5 543.5,15 L543.5,41 C543.5,51 525.5,51 525.5,51 C525.5,51 507.5,51 507.5,41 L507.5,15 " fill="#E2E2F0" style="stroke:#181818;stroke-width:1.5;"/><path d="M507.5,15 C507.5,25 525.5,25 525.5,25 C525.5,25 543.5,25 543.5,15 " fill="none" style="stroke:#181818;stroke-width:1.5;"/><text fill="#000000" font-family="sans-serif" font-size="14" lengthAdjust="spacing" textLength="80" x="482.5" y="376.6514">Health Data</text><text fill="#000000" font-family="sans-serif" font-size="14" lengthAdjust="spacing" textLength="60" x="492.5" y="392.9482">Manager</text><path d="M507.5,406.25 C507.5,396.25 525.5,396.25 525.5,396.25 C525.5,396.25 543.5,396.25 543.5,406.25 L543.5,432.25 C543.5,442.25 525.5,442.25 525.5,442.25 C525.5,442.25 507.5,442.25 507.5,432.25 L507.5,406.25 " fill="#E2E2F0" style="stroke:#181818;stroke-width:1.5;"/><path d="M507.5,406.25 C507.5,416.25 525.5,416.25 525.5,416.25 C525.5,416.25 543.5,416.25 543.5,406.25 " fill="none" style="stroke:#181818;stroke-width:1.5;"/><polygon fill="#181818" points="243.5,110.7266,253.5,114.7266,243.5,118.7266,247.5,114.7266" style="stroke:#181818;stroke-width:1.0;"/><line style="stroke:#181818;stroke-width:1.0;" x1="45.5" x2="249.5" y1="114.7266" y2="114.7266"/><text fill="#000000" font-family="sans-serif" font-size="13" lengthAdjust="spacing" textLength="154" x="52.5" y="109.6606">Request medication info</text><polygon fill="#181818" points="513.5,139.8594,523.5,143.8594,513.5,147.8594,517.5,143.8594" style="stroke:#181818;stroke-width:1.0;"/><line style="stroke:#181818;stroke-width:1.0;" x1="255.5" x2="519.5" y1="143.8594" y2="143.8594"/><text fill="#000000" font-family="sans-serif" font-size="13" lengthAdjust="spacing" textLength="158" x="262.5" y="138.7935">GET SMP-Bundle (Query)</text><polygon fill="#181818" points="266.5,151.8594,256.5,155.8594,266.5,159.8594,262.5,155.8594" style="stroke:#181818;stroke-width:1.0;"/><line style="stroke:#181818;stroke-width:1.0;" x1="260.5" x2="524.5" y1="155.8594" y2="155.8594"/><text fill="#000000" font-family="sans-serif" font-size="13" lengthAdjust="spacing" textLength="155" x="272.5" y="168.9263">existing Medication Lists</text><polygon fill="#181818" points="243.5,198.125,253.5,202.125,243.5,206.125,247.5,202.125" style="stroke:#181818;stroke-width:1.0;"/><line style="stroke:#181818;stroke-width:1.0;" x1="45.5" x2="249.5" y1="202.125" y2="202.125"/><text fill="#000000" font-family="sans-serif" font-size="13" lengthAdjust="spacing" textLength="186" x="52.5" y="197.0591">Medication Orders for patient</text><line style="stroke:#181818;stroke-width:1.0;" x1="255.5" x2="297.5" y1="231.2578" y2="231.2578"/><line style="stroke:#181818;stroke-width:1.0;" x1="297.5" x2="297.5" y1="231.2578" y2="244.2578"/><line style="stroke:#181818;stroke-width:1.0;" x1="256.5" x2="297.5" y1="244.2578" y2="244.2578"/><polygon fill="#181818" points="266.5,240.2578,256.5,244.2578,266.5,248.2578,262.5,244.2578" style="stroke:#181818;stroke-width:1.0;"/><text fill="#000000" font-family="sans-serif" font-size="13" lengthAdjust="spacing" textLength="256" x="262.5" y="226.1919">Generate Administration Medication List</text><path d="M194.5,259.2578 L271.5,259.2578 L271.5,266.3906 L261.5,276.3906 L194.5,276.3906 L194.5,259.2578 " fill="#EEEEEE" style="stroke:#000000;stroke-width:1.5;"/><rect fill="none" height="59.2656" style="stroke:#000000;stroke-width:1.5;" width="227" x="194.5" y="259.2578"/><text fill="#000000" font-family="sans-serif" font-size="13" font-weight="bold" lengthAdjust="spacing" textLength="32" x="209.5" y="272.3247">loop</text><text fill="#000000" font-family="sans-serif" font-size="11" font-weight="bold" lengthAdjust="spacing" textLength="101" x="286.5" y="271.4683">[for each order]</text><line style="stroke:#181818;stroke-width:1.0;" x1="255.5" x2="297.5" y1="297.5234" y2="297.5234"/><line style="stroke:#181818;stroke-width:1.0;" x1="297.5" x2="297.5" y1="297.5234" y2="310.5234"/><line style="stroke:#181818;stroke-width:1.0;" x1="256.5" x2="297.5" y1="310.5234" y2="310.5234"/><polygon fill="#181818" points="266.5,306.5234,256.5,310.5234,266.5,314.5234,262.5,310.5234" style="stroke:#181818;stroke-width:1.0;"/><text fill="#000000" font-family="sans-serif" font-size="13" lengthAdjust="spacing" textLength="147" x="262.5" y="292.4575">Add order to Admin list</text><polygon fill="#181818" points="243.5,342.6563,253.5,346.6563,243.5,350.6563,247.5,346.6563" style="stroke:#181818;stroke-width:1.0;"/><line style="stroke:#181818;stroke-width:1.0;" x1="45.5" x2="249.5" y1="346.6563" y2="346.6563"/><text fill="#000000" font-family="sans-serif" font-size="13" lengthAdjust="spacing" textLength="184" x="52.5" y="341.5903">Revise orders (as necessary)</text><!--SRC=[NL4xJyD03DxlLrYTob06nWeXzKKx404b8ul9kUc9n7Vu70h_7YSHK9XE-fvdExy6JYZOWb1EaJCLb3FMjAGcdXOYyGGg7Jc7bKQ1oGg5e2Hi9u0PLgKpjuOg96I5oIxc51GRsEpsWy1Uvr7n1JCPJTZe4TO6F7E1R3qoo7RhmhbL2RERtZ67FRrrb1LQyg523P4Xy24w8tkDoUUmtPJmL3pCbXtxXc3ws95yNWoIwzaeeO-GDN0DnM_EdK7vlEkCknTFak5WWoP3YFMxSL1kYKbG2HQ-3MmvCjh-fJk09iOqn11MHuXzhA40vsaBxqS6D8w9q8nkOlzt6U_1jXV7pqrjNKnLVwL-N5TX6fflGztPQPQNLtFuEKCfXDhQ75y0]--></g></svg>