<svg xmlns="http://www.w3.org/2000/svg" xmlns:xlink="http://www.w3.org/1999/xlink" contentStyleType="text/css" height="457px" preserveAspectRatio="none" style="width:848px;height:457px;background:#FFFFFF;" version="1.1" viewBox="0 0 848 457" width="848px" zoomAndPan="magnify"><defs/><g><text fill="#000000" font-family="sans-serif" font-size="14" lengthAdjust="spacing" textLength="208" x="321.25" y="444.917">Figure B.3: Hospital Discharge</text><rect fill="none" height="59.2656" style="stroke:#000000;stroke-width:1.5;" width="287" x="218.5" y="171.8594"/><rect fill="none" height="90.2031" style="stroke:#000000;stroke-width:1.5;" width="623" x="218.5" y="245.125"/><line style="stroke:#181818;stroke-width:0.5;stroke-dasharray:5.0,5.0;" x1="45" x2="45" y1="83.5938" y2="352.3281"/><line style="stroke:#181818;stroke-width:0.5;stroke-dasharray:5.0,5.0;" x1="279.5" x2="279.5" y1="83.5938" y2="352.3281"/><line style="stroke:#181818;stroke-width:0.5;stroke-dasharray:5.0,5.0;" x1="614.5" x2="614.5" y1="83.5938" y2="352.3281"/><line style="stroke:#181818;stroke-width:0.5;stroke-dasharray:5.0,5.0;" x1="749.5" x2="749.5" y1="83.5938" y2="352.3281"/><text fill="#000000" font-family="sans-serif" font-size="14" lengthAdjust="spacing" textLength="75" x="5" y="80.292">Care Team</text><ellipse cx="45.5" cy="15.7969" fill="#E2E2F0" rx="8" ry="8" style="stroke:#181818;stroke-width:0.5;"/><path d="M45.5,23.7969 L45.5,50.7969 M32.5,31.7969 L58.5,31.7969 M45.5,50.7969 L32.5,65.7969 M45.5,50.7969 L58.5,65.7969 " fill="none" style="stroke:#181818;stroke-width:0.5;"/><text fill="#000000" font-family="sans-serif" font-size="14" lengthAdjust="spacing" textLength="75" x="5" y="364.3232">Care Team</text><ellipse cx="45.5" cy="376.125" fill="#E2E2F0" rx="8" ry="8" style="stroke:#181818;stroke-width:0.5;"/><path d="M45.5,384.125 L45.5,411.125 M32.5,392.125 L58.5,392.125 M45.5,411.125 L32.5,426.125 M45.5,411.125 L58.5,426.125 " fill="none" style="stroke:#181818;stroke-width:0.5;"/><rect fill="#E2E2F0" height="30.2969" rx="2.5" ry="2.5" style="stroke:#181818;stroke-width:0.5;" width="102" x="228.5" y="52.2969"/><text fill="#000000" font-family="sans-serif" font-size="14" lengthAdjust="spacing" textLength="88" x="235.5" y="72.292">Hospital EHR</text><rect fill="#E2E2F0" height="30.2969" rx="2.5" ry="2.5" style="stroke:#181818;stroke-width:0.5;" width="102" x="228.5" y="351.3281"/><text fill="#000000" font-family="sans-serif" font-size="14" lengthAdjust="spacing" textLength="88" x="235.5" y="371.3232">Hospital EHR</text><text fill="#000000" font-family="sans-serif" font-size="14" lengthAdjust="spacing" textLength="80" x="571.5" y="63.9951">Health Data</text><text fill="#000000" font-family="sans-serif" font-size="14" lengthAdjust="spacing" textLength="60" x="581.5" y="80.292">Manager</text><path d="M596.5,15 C596.5,5 614.5,5 614.5,5 C614.5,5 632.5,5 632.5,15 L632.5,41 C632.5,51 614.5,51 614.5,51 C614.5,51 596.5,51 596.5,41 L596.5,15 " fill="#E2E2F0" style="stroke:#181818;stroke-width:1.5;"/><path d="M596.5,15 C596.5,25 614.5,25 614.5,25 C614.5,25 632.5,25 632.5,15 " fill="none" style="stroke:#181818;stroke-width:1.5;"/><text fill="#000000" font-family="sans-serif" font-size="14" lengthAdjust="spacing" textLength="80" x="571.5" y="364.3232">Health Data</text><text fill="#000000" font-family="sans-serif" font-size="14" lengthAdjust="spacing" textLength="60" x="581.5" y="380.6201">Manager</text><path d="M596.5,393.9219 C596.5,383.9219 614.5,383.9219 614.5,383.9219 C614.5,383.9219 632.5,383.9219 632.5,393.9219 L632.5,419.9219 C632.5,429.9219 614.5,429.9219 614.5,429.9219 C614.5,429.9219 596.5,429.9219 596.5,419.9219 L596.5,393.9219 " fill="#E2E2F0" style="stroke:#181818;stroke-width:1.5;"/><path d="M596.5,393.9219 C596.5,403.9219 614.5,403.9219 614.5,403.9219 C614.5,403.9219 632.5,403.9219 632.5,393.9219 " fill="none" style="stroke:#181818;stroke-width:1.5;"/><rect fill="#E2E2F0" height="30.2969" rx="2.5" ry="2.5" style="stroke:#181818;stroke-width:0.5;" width="164" x="667.5" y="52.2969"/><text fill="#000000" font-family="sans-serif" font-size="14" lengthAdjust="spacing" textLength="150" x="674.5" y="72.292">Skilled Nursing Facility</text><rect fill="#E2E2F0" height="30.2969" rx="2.5" ry="2.5" style="stroke:#181818;stroke-width:0.5;" width="164" x="667.5" y="351.3281"/><text fill="#000000" font-family="sans-serif" font-size="14" lengthAdjust="spacing" textLength="150" x="674.5" y="371.3232">Skilled Nursing Facility</text><polygon fill="#181818" points="267.5,110.7266,277.5,114.7266,267.5,118.7266,271.5,114.7266" style="stroke:#181818;stroke-width:1.0;"/><line style="stroke:#181818;stroke-width:1.0;" x1="45.5" x2="273.5" y1="114.7266" y2="114.7266"/><text fill="#000000" font-family="sans-serif" font-size="13" lengthAdjust="spacing" textLength="210" x="52.5" y="109.6606">Define medications for discharge</text><line style="stroke:#181818;stroke-width:1.0;" x1="279.5" x2="321.5" y1="143.8594" y2="143.8594"/><line style="stroke:#181818;stroke-width:1.0;" x1="321.5" x2="321.5" y1="143.8594" y2="156.8594"/><line style="stroke:#181818;stroke-width:1.0;" x1="280.5" x2="321.5" y1="156.8594" y2="156.8594"/><polygon fill="#181818" points="290.5,152.8594,280.5,156.8594,290.5,160.8594,286.5,156.8594" style="stroke:#181818;stroke-width:1.0;"/><text fill="#000000" font-family="sans-serif" font-size="13" lengthAdjust="spacing" textLength="227" x="286.5" y="138.7935">Generate Discharge Medication List</text><path d="M218.5,171.8594 L295.5,171.8594 L295.5,178.9922 L285.5,188.9922 L218.5,188.9922 L218.5,171.8594 " fill="#EEEEEE" style="stroke:#000000;stroke-width:1.5;"/><rect fill="none" height="59.2656" style="stroke:#000000;stroke-width:1.5;" width="287" x="218.5" y="171.8594"/><text fill="#000000" font-family="sans-serif" font-size="13" font-weight="bold" lengthAdjust="spacing" textLength="32" x="233.5" y="184.9263">loop</text><text fill="#000000" font-family="sans-serif" font-size="11" font-weight="bold" lengthAdjust="spacing" textLength="138" x="310.5" y="184.0698">[for each medication]</text><line style="stroke:#181818;stroke-width:1.0;" x1="279.5" x2="321.5" y1="210.125" y2="210.125"/><line style="stroke:#181818;stroke-width:1.0;" x1="321.5" x2="321.5" y1="210.125" y2="223.125"/><line style="stroke:#181818;stroke-width:1.0;" x1="280.5" x2="321.5" y1="223.125" y2="223.125"/><polygon fill="#181818" points="290.5,219.125,280.5,223.125,290.5,227.125,286.5,223.125" style="stroke:#181818;stroke-width:1.0;"/><text fill="#000000" font-family="sans-serif" font-size="13" lengthAdjust="spacing" textLength="207" x="286.5" y="205.0591">Add medication to Discharge list</text><path d="M218.5,245.125 L282.5,245.125 L282.5,252.2578 L272.5,262.2578 L218.5,262.2578 L218.5,245.125 " fill="#EEEEEE" style="stroke:#000000;stroke-width:1.5;"/><rect fill="none" height="90.2031" style="stroke:#000000;stroke-width:1.5;" width="623" x="218.5" y="245.125"/><text fill="#000000" font-family="sans-serif" font-size="13" font-weight="bold" lengthAdjust="spacing" textLength="19" x="233.5" y="258.1919">alt</text><text fill="#000000" font-family="sans-serif" font-size="11" font-weight="bold" lengthAdjust="spacing" textLength="133" x="297.5" y="257.3354">[Connection to HDM]</text><polygon fill="#181818" points="602.5,279.3906,612.5,283.3906,602.5,287.3906,606.5,283.3906" style="stroke:#181818;stroke-width:1.0;"/><line style="stroke:#181818;stroke-width:1.0;" x1="279.5" x2="608.5" y1="283.3906" y2="283.3906"/><text fill="#000000" font-family="sans-serif" font-size="13" lengthAdjust="spacing" textLength="311" x="286.5" y="278.3247">POST SMP-Bundle-Tx (Discharge Medication List)</text><line style="stroke:#000000;stroke-width:1.0;stroke-dasharray:2.0,2.0;" x1="218.5" x2="841.5" y1="292.3906" y2="292.3906"/><text fill="#000000" font-family="sans-serif" font-size="11" font-weight="bold" lengthAdjust="spacing" textLength="129" x="223.5" y="302.6011">[Connection to SNF]</text><polygon fill="#181818" points="737.5,323.3281,747.5,327.3281,737.5,331.3281,741.5,327.3281" style="stroke:#181818;stroke-width:1.0;"/><line style="stroke:#181818;stroke-width:1.0;" x1="279.5" x2="743.5" y1="327.3281" y2="327.3281"/><text fill="#000000" font-family="sans-serif" font-size="13" lengthAdjust="spacing" textLength="311" x="286.5" y="322.2622">POST SMP-Bundle-Tx (Discharge Medication List)</text><!--SRC=[bP4_JyCm4CLtVugdJZ2KXQq3KfjGEf1IaOmiXtrDJtNjo7PK-FQuGOtIWO79kdllVhu_yIYkeq0d18wTTv4hZf5QNh7rvsK8_emKUbQATF81iu82es4wpK0HHQDoTH8j7Rc4sSR7JX9PF6_U1qD-bQ54dnGvoqms7L3cn8UhoEL_mc3RbDKjg3wAjMomxKCKrs9DMgoaxy5TRzTA5GtcJnV-0YNlnJ5ER4HJaZm5zhbN8r4VABIiiciqlx3ZG8bHNcLKOo5U9IO5ME-xWS6a3nDmbe0fRMdCH4Ro4wpzPR4pUNiseV3EiRxwBYDFQ3bSOFTMDwYhtNpLEsDvtdpXxiysxuTonJPlzXPzsSy4dSD_euUcDNL3QYrjdw- -UdXSOBpmMFm3]--></g></svg>