<svg xmlns="http://www.w3.org/2000/svg" xmlns:xlink="http://www.w3.org/1999/xlink" contentStyleType="text/css" height="610px" preserveAspectRatio="none" style="width:584px;height:610px;background:#FFFFFF;" version="1.1" viewBox="0 0 584 610" width="584px" zoomAndPan="magnify"><defs/><g><text fill="#000000" font-family="sans-serif" font-size="14" lengthAdjust="spacing" textLength="181" x="203.25" y="598.042">Figure C.2: SNF Admission</text><rect fill="none" height="157.0625" style="stroke:#000000;stroke-width:1.5;" width="534.5" x="44" y="143.7266"/><rect fill="none" height="59.2656" style="stroke:#000000;stroke-width:1.5;" width="258" x="163.5" y="386.0547"/><line style="stroke:#181818;stroke-width:0.5;stroke-dasharray:5.0,5.0;" x1="45" x2="45" y1="97.5938" y2="491.4531"/><line style="stroke:#181818;stroke-width:0.5;stroke-dasharray:5.0,5.0;" x1="255.5" x2="255.5" y1="97.5938" y2="491.4531"/><line style="stroke:#181818;stroke-width:0.5;stroke-dasharray:5.0,5.0;" x1="525.5" x2="525.5" y1="97.5938" y2="491.4531"/><text fill="#000000" font-family="sans-serif" font-size="14" lengthAdjust="spacing" textLength="27" x="29" y="77.9951">SNF</text><text fill="#000000" font-family="sans-serif" font-size="14" lengthAdjust="spacing" textLength="75" x="5" y="94.292">Care Team</text><ellipse cx="45.5" cy="13.5" fill="#E2E2F0" rx="8" ry="8" style="stroke:#181818;stroke-width:0.5;"/><path d="M45.5,21.5 L45.5,48.5 M32.5,29.5 L58.5,29.5 M45.5,48.5 L32.5,63.5 M45.5,48.5 L58.5,63.5 " fill="none" style="stroke:#181818;stroke-width:0.5;"/><text fill="#000000" font-family="sans-serif" font-size="14" lengthAdjust="spacing" textLength="27" x="29" y="503.4482">SNF</text><text fill="#000000" font-family="sans-serif" font-size="14" lengthAdjust="spacing" textLength="75" x="5" y="519.7451">Care Team</text><ellipse cx="45.5" cy="531.5469" fill="#E2E2F0" rx="8" ry="8" style="stroke:#181818;stroke-width:0.5;"/><path d="M45.5,539.5469 L45.5,566.5469 M32.5,547.5469 L58.5,547.5469 M45.5,566.5469 L32.5,581.5469 M45.5,566.5469 L58.5,581.5469 " fill="none" style="stroke:#181818;stroke-width:0.5;"/><rect fill="#E2E2F0" height="46.5938" rx="2.5" ry="2.5" style="stroke:#181818;stroke-width:0.5;" width="164" x="173.5" y="50"/><text fill="#000000" font-family="sans-serif" font-size="14" lengthAdjust="spacing" textLength="150" x="180.5" y="69.9951">Skilled Nursing Facility</text><text fill="#000000" font-family="sans-serif" font-size="14" lengthAdjust="spacing" textLength="29" x="241" y="86.292">EHR</text><rect fill="#E2E2F0" height="46.5938" rx="2.5" ry="2.5" style="stroke:#181818;stroke-width:0.5;" width="164" x="173.5" y="490.4531"/><text fill="#000000" font-family="sans-serif" font-size="14" lengthAdjust="spacing" textLength="150" x="180.5" y="510.4482">Skilled Nursing Facility</text><text fill="#000000" font-family="sans-serif" font-size="14" lengthAdjust="spacing" textLength="29" x="241" y="526.7451">EHR</text><text fill="#000000" font-family="sans-serif" font-size="14" lengthAdjust="spacing" textLength="80" x="482.5" y="77.9951">Health Data</text><text fill="#000000" font-family="sans-serif" font-size="14" lengthAdjust="spacing" textLength="60" x="492.5" y="94.292">Manager</text><path d="M507.5,29 C507.5,19 525.5,19 525.5,19 C525.5,19 543.5,19 543.5,29 L543.5,55 C543.5,65 525.5,65 525.5,65 C525.5,65 507.5,65 507.5,55 L507.5,29 " fill="#E2E2F0" style="stroke:#181818;stroke-width:1.5;"/><path d="M507.5,29 C507.5,39 525.5,39 525.5,39 C525.5,39 543.5,39 543.5,29 " fill="none" style="stroke:#181818;stroke-width:1.5;"/><text fill="#000000" font-family="sans-serif" font-size="14" lengthAdjust="spacing" textLength="80" x="482.5" y="503.4482">Health Data</text><text fill="#000000" font-family="sans-serif" font-size="14" lengthAdjust="spacing" textLength="60" x="492.5" y="519.7451">Manager</text><path d="M507.5,533.0469 C507.5,523.0469 525.5,523.0469 525.5,523.0469 C525.5,523.0469 543.5,523.0469 543.5,533.0469 L543.5,559.0469 C543.5,569.0469 525.5,569.0469 525.5,569.0469 C525.5,569.0469 507.5,569.0469 507.5,559.0469 L507.5,533.0469 " fill="#E2E2F0" style="stroke:#181818;stroke-width:1.5;"/><path d="M507.5,533.0469 C507.5,543.0469 525.5,543.0469 525.5,543.0469 C525.5,543.0469 543.5,543.0469 543.5,533.0469 " fill="none" style="stroke:#181818;stroke-width:1.5;"/><polygon fill="#181818" points="243.5,124.7266,253.5,128.7266,243.5,132.7266,247.5,128.7266" style="stroke:#181818;stroke-width:1.0;"/><line style="stroke:#181818;stroke-width:1.0;" x1="45.5" x2="249.5" y1="128.7266" y2="128.7266"/><text fill="#000000" font-family="sans-serif" font-size="13" lengthAdjust="spacing" textLength="154" x="52.5" y="123.6606">Request medication info</text><path d="M44,143.7266 L108,143.7266 L108,150.8594 L98,160.8594 L44,160.8594 L44,143.7266 " fill="#EEEEEE" style="stroke:#000000;stroke-width:1.5;"/><rect fill="none" height="157.0625" style="stroke:#000000;stroke-width:1.5;" width="534.5" x="44" y="143.7266"/><text fill="#000000" font-family="sans-serif" font-size="13" font-weight="bold" lengthAdjust="spacing" textLength="19" x="59" y="156.7935">alt</text><text fill="#000000" font-family="sans-serif" font-size="11" font-weight="bold" lengthAdjust="spacing" textLength="193" x="123" y="155.937">[Previous Lists are requested]</text><polygon fill="#181818" points="513.5,218.8242,523.5,222.8242,513.5,226.8242,517.5,222.8242" style="stroke:#181818;stroke-width:1.0;"/><line style="stroke:#181818;stroke-width:1.0;" x1="255.5" x2="519.5" y1="222.8242" y2="222.8242"/><text fill="#000000" font-family="sans-serif" font-size="13" lengthAdjust="spacing" textLength="158" x="262.5" y="217.7583">GET SMP-Bundle (Query)</text><path d="M54,165.8594 L54,265.8594 L250,265.8594 L250,175.8594 L240,165.8594 L54,165.8594 " fill="#FEFFDD" style="stroke:#181818;stroke-width:0.5;"/><path d="M240,165.8594 L240,175.8594 L250,175.8594 L240,165.8594 " fill="#FEFFDD" style="stroke:#181818;stroke-width:0.5;"/><text fill="#000000" font-family="sans-serif" font-size="13" lengthAdjust="spacing" textLength="147" x="60" y="182.9263">The Hospital Discharge</text><text fill="#000000" font-family="sans-serif" font-size="13" lengthAdjust="spacing" textLength="147" x="60" y="198.0591">Medication List may be</text><text fill="#000000" font-family="sans-serif" font-size="13" lengthAdjust="spacing" textLength="153" x="60" y="213.1919">available at the SNF but</text><text fill="#000000" font-family="sans-serif" font-size="13" lengthAdjust="spacing" textLength="148" x="60" y="228.3247">other lists including the</text><text fill="#000000" font-family="sans-serif" font-size="13" lengthAdjust="spacing" textLength="163" x="60" y="243.4575">Discontinued Medications</text><text fill="#000000" font-family="sans-serif" font-size="13" lengthAdjust="spacing" textLength="175" x="60" y="258.5903">may form part of this query</text><polygon fill="#181818" points="266.5,271.6563,256.5,275.6563,266.5,279.6563,262.5,275.6563" style="stroke:#181818;stroke-width:1.0;"/><line style="stroke:#181818;stroke-width:1.0;" x1="260.5" x2="524.5" y1="275.6563" y2="275.6563"/><text fill="#000000" font-family="sans-serif" font-size="13" lengthAdjust="spacing" textLength="155" x="272.5" y="288.7231">existing Medication Lists</text><polygon fill="#181818" points="243.5,324.9219,253.5,328.9219,243.5,332.9219,247.5,328.9219" style="stroke:#181818;stroke-width:1.0;"/><line style="stroke:#181818;stroke-width:1.0;" x1="45.5" x2="249.5" y1="328.9219" y2="328.9219"/><text fill="#000000" font-family="sans-serif" font-size="13" lengthAdjust="spacing" textLength="186" x="52.5" y="323.856">Medication Orders for patient</text><line style="stroke:#181818;stroke-width:1.0;" x1="255.5" x2="297.5" y1="358.0547" y2="358.0547"/><line style="stroke:#181818;stroke-width:1.0;" x1="297.5" x2="297.5" y1="358.0547" y2="371.0547"/><line style="stroke:#181818;stroke-width:1.0;" x1="256.5" x2="297.5" y1="371.0547" y2="371.0547"/><polygon fill="#181818" points="266.5,367.0547,256.5,371.0547,266.5,375.0547,262.5,371.0547" style="stroke:#181818;stroke-width:1.0;"/><text fill="#000000" font-family="sans-serif" font-size="13" lengthAdjust="spacing" textLength="256" x="262.5" y="352.9888">Generate Administration Medication List</text><path d="M163.5,386.0547 L240.5,386.0547 L240.5,393.1875 L230.5,403.1875 L163.5,403.1875 L163.5,386.0547 " fill="#EEEEEE" style="stroke:#000000;stroke-width:1.5;"/><rect fill="none" height="59.2656" style="stroke:#000000;stroke-width:1.5;" width="258" x="163.5" y="386.0547"/><text fill="#000000" font-family="sans-serif" font-size="13" font-weight="bold" lengthAdjust="spacing" textLength="32" x="178.5" y="399.1216">loop</text><text fill="#000000" font-family="sans-serif" font-size="11" font-weight="bold" lengthAdjust="spacing" textLength="101" x="255.5" y="398.2651">[for each order]</text><line style="stroke:#181818;stroke-width:1.0;" x1="255.5" x2="297.5" y1="424.3203" y2="424.3203"/><line style="stroke:#181818;stroke-width:1.0;" x1="297.5" x2="297.5" y1="424.3203" y2="437.3203"/><line style="stroke:#181818;stroke-width:1.0;" x1="256.5" x2="297.5" y1="437.3203" y2="437.3203"/><polygon fill="#181818" points="266.5,433.3203,256.5,437.3203,266.5,441.3203,262.5,437.3203" style="stroke:#181818;stroke-width:1.0;"/><text fill="#000000" font-family="sans-serif" font-size="13" lengthAdjust="spacing" textLength="147" x="262.5" y="419.2544">Add order to Admin list</text><polygon fill="#181818" points="243.5,469.4531,253.5,473.4531,243.5,477.4531,247.5,473.4531" style="stroke:#181818;stroke-width:1.0;"/><line style="stroke:#181818;stroke-width:1.0;" x1="45.5" x2="249.5" y1="473.4531" y2="473.4531"/><text fill="#000000" font-family="sans-serif" font-size="13" lengthAdjust="spacing" textLength="184" x="52.5" y="468.3872">Revise orders (as necessary)</text><!--SRC=[NL8zSzim3DtvAt2Uqi4TElfolNFiE1wg94qqUe55sCQ50XM2Skf_Nv3gDH_QX0Uyz_08VM4PC64FYNI8ejIGAXxfXa9yMwOKto2daPp3BiS4i-VxpKvMc0XQmdu6gB1gdL5axdX0oTRomY6GX_inASiHDjXnu7pPoUtsgKuOYVEOSOzACDiIXdo2jHLsqg2OUgfjstNZd5krCFzPHXRmHAyZQOQUF7UOEGgm7AAP2naU4vqvZWg_MBD2iPYcVl8Ex3EAmcIi2xYxRU6vUPpVZE83mTNlaTBbMssJc0a27NBzQqy4swW3PmomPkrEc8u45MlURHHDwF42UweGdf43xeqQCsJZAEBxSUACLaWGgasMBeo-n6J5YXQHA9bbj0pV9RI2HU8GKmybSOW7csA5r-A-uYI-Bl1_uUlvj33zCRaYyyMqEXlv5FA7XeVaAMaHDBtC9Ddz2x5stf5GGajhwNiM8qlJs1S9yn9Y72eDONU2M6W_FabbMte_8P3Zn5WZSdMfprTmPhkRE9cxiaCHwihLbXTq7GvLUSF7qKvWzVt7eieKHbL3_W80]--></g></svg>