<svg xmlns="http://www.w3.org/2000/svg" xmlns:xlink="http://www.w3.org/1999/xlink" contentStyleType="text/css" height="529px" preserveAspectRatio="none" style="width:954px;height:529px;background:#FFFFFF;" version="1.1" viewBox="0 0 954 529" width="954px" zoomAndPan="magnify"><defs/><g><text fill="#000000" font-family="sans-serif" font-size="14" lengthAdjust="spacing" textLength="180" x="388.25" y="516.8545">Figure C.3: SNF Discharge</text><rect fill="none" height="59.2656" style="stroke:#000000;stroke-width:1.5;" width="318" x="187.5" y="185.8594"/><rect fill="none" height="134.1406" style="stroke:#000000;stroke-width:1.5;" width="760" x="187.5" y="259.125"/><line style="stroke:#181818;stroke-width:0.5;stroke-dasharray:5.0,5.0;" x1="45" x2="45" y1="97.5938" y2="410.2656"/><line style="stroke:#181818;stroke-width:0.5;stroke-dasharray:5.0,5.0;" x1="279.5" x2="279.5" y1="97.5938" y2="410.2656"/><line style="stroke:#181818;stroke-width:0.5;stroke-dasharray:5.0,5.0;" x1="614.5" x2="614.5" y1="97.5938" y2="410.2656"/><line style="stroke:#181818;stroke-width:0.5;stroke-dasharray:5.0,5.0;" x1="751.5" x2="751.5" y1="97.5938" y2="410.2656"/><line style="stroke:#181818;stroke-width:0.5;stroke-dasharray:5.0,5.0;" x1="891.5" x2="891.5" y1="97.5938" y2="410.2656"/><text fill="#000000" font-family="sans-serif" font-size="14" lengthAdjust="spacing" textLength="27" x="29" y="77.9951">SNF</text><text fill="#000000" font-family="sans-serif" font-size="14" lengthAdjust="spacing" textLength="75" x="5" y="94.292">Care Team</text><ellipse cx="45.5" cy="13.5" fill="#E2E2F0" rx="8" ry="8" style="stroke:#181818;stroke-width:0.5;"/><path d="M45.5,21.5 L45.5,48.5 M32.5,29.5 L58.5,29.5 M45.5,48.5 L32.5,63.5 M45.5,48.5 L58.5,63.5 " fill="none" style="stroke:#181818;stroke-width:0.5;"/><text fill="#000000" font-family="sans-serif" font-size="14" lengthAdjust="spacing" textLength="27" x="29" y="422.2607">SNF</text><text fill="#000000" font-family="sans-serif" font-size="14" lengthAdjust="spacing" textLength="75" x="5" y="438.5576">Care Team</text><ellipse cx="45.5" cy="450.3594" fill="#E2E2F0" rx="8" ry="8" style="stroke:#181818;stroke-width:0.5;"/><path d="M45.5,458.3594 L45.5,485.3594 M32.5,466.3594 L58.5,466.3594 M45.5,485.3594 L32.5,500.3594 M45.5,485.3594 L58.5,500.3594 " fill="none" style="stroke:#181818;stroke-width:0.5;"/><rect fill="#E2E2F0" height="46.5938" rx="2.5" ry="2.5" style="stroke:#181818;stroke-width:0.5;" width="164" x="197.5" y="50"/><text fill="#000000" font-family="sans-serif" font-size="14" lengthAdjust="spacing" textLength="150" x="204.5" y="69.9951">Skilled Nursing Facility</text><text fill="#000000" font-family="sans-serif" font-size="14" lengthAdjust="spacing" textLength="29" x="265" y="86.292">EHR</text><rect fill="#E2E2F0" height="46.5938" rx="2.5" ry="2.5" style="stroke:#181818;stroke-width:0.5;" width="164" x="197.5" y="409.2656"/><text fill="#000000" font-family="sans-serif" font-size="14" lengthAdjust="spacing" textLength="150" x="204.5" y="429.2607">Skilled Nursing Facility</text><text fill="#000000" font-family="sans-serif" font-size="14" lengthAdjust="spacing" textLength="29" x="265" y="445.5576">EHR</text><text fill="#000000" font-family="sans-serif" font-size="14" lengthAdjust="spacing" textLength="80" x="571.5" y="77.9951">Health Data</text><text fill="#000000" font-family="sans-serif" font-size="14" lengthAdjust="spacing" textLength="60" x="581.5" y="94.292">Manager</text><path d="M596.5,29 C596.5,19 614.5,19 614.5,19 C614.5,19 632.5,19 632.5,29 L632.5,55 C632.5,65 614.5,65 614.5,65 C614.5,65 596.5,65 596.5,55 L596.5,29 " fill="#E2E2F0" style="stroke:#181818;stroke-width:1.5;"/><path d="M596.5,29 C596.5,39 614.5,39 614.5,39 C614.5,39 632.5,39 632.5,29 " fill="none" style="stroke:#181818;stroke-width:1.5;"/><text fill="#000000" font-family="sans-serif" font-size="14" lengthAdjust="spacing" textLength="80" x="571.5" y="422.2607">Health Data</text><text fill="#000000" font-family="sans-serif" font-size="14" lengthAdjust="spacing" textLength="60" x="581.5" y="438.5576">Manager</text><path d="M596.5,451.8594 C596.5,441.8594 614.5,441.8594 614.5,441.8594 C614.5,441.8594 632.5,441.8594 632.5,451.8594 L632.5,477.8594 C632.5,487.8594 614.5,487.8594 614.5,487.8594 C614.5,487.8594 596.5,487.8594 596.5,477.8594 L596.5,451.8594 " fill="#E2E2F0" style="stroke:#181818;stroke-width:1.5;"/><path d="M596.5,451.8594 C596.5,461.8594 614.5,461.8594 614.5,461.8594 C614.5,461.8594 632.5,461.8594 632.5,451.8594 " fill="none" style="stroke:#181818;stroke-width:1.5;"/><rect fill="#E2E2F0" height="46.5938" rx="2.5" ry="2.5" style="stroke:#181818;stroke-width:0.5;" width="168" x="667.5" y="50"/><text fill="#000000" font-family="sans-serif" font-size="14" lengthAdjust="spacing" textLength="154" x="674.5" y="69.9951">Home Health Authority</text><text fill="#000000" font-family="sans-serif" font-size="14" lengthAdjust="spacing" textLength="29" x="737" y="86.292">EHR</text><rect fill="#E2E2F0" height="46.5938" rx="2.5" ry="2.5" style="stroke:#181818;stroke-width:0.5;" width="168" x="667.5" y="409.2656"/><text fill="#000000" font-family="sans-serif" font-size="14" lengthAdjust="spacing" textLength="154" x="674.5" y="429.2607">Home Health Authority</text><text fill="#000000" font-family="sans-serif" font-size="14" lengthAdjust="spacing" textLength="29" x="737" y="445.5576">EHR</text><rect fill="#E2E2F0" height="46.5938" rx="2.5" ry="2.5" style="stroke:#181818;stroke-width:0.5;" width="92" x="845.5" y="50"/><text fill="#000000" font-family="sans-serif" font-size="14" lengthAdjust="spacing" textLength="78" x="852.5" y="69.9951">Community</text><text fill="#000000" font-family="sans-serif" font-size="14" lengthAdjust="spacing" textLength="67" x="858" y="86.292">Pharmacy</text><rect fill="#E2E2F0" height="46.5938" rx="2.5" ry="2.5" style="stroke:#181818;stroke-width:0.5;" width="92" x="845.5" y="409.2656"/><text fill="#000000" font-family="sans-serif" font-size="14" lengthAdjust="spacing" textLength="78" x="852.5" y="429.2607">Community</text><text fill="#000000" font-family="sans-serif" font-size="14" lengthAdjust="spacing" textLength="67" x="858" y="445.5576">Pharmacy</text><polygon fill="#181818" points="267.5,124.7266,277.5,128.7266,267.5,132.7266,271.5,128.7266" style="stroke:#181818;stroke-width:1.0;"/><line style="stroke:#181818;stroke-width:1.0;" x1="45.5" x2="273.5" y1="128.7266" y2="128.7266"/><text fill="#000000" font-family="sans-serif" font-size="13" lengthAdjust="spacing" textLength="210" x="52.5" y="123.6606">Define medications for discharge</text><line style="stroke:#181818;stroke-width:1.0;" x1="279.5" x2="321.5" y1="157.8594" y2="157.8594"/><line style="stroke:#181818;stroke-width:1.0;" x1="321.5" x2="321.5" y1="157.8594" y2="170.8594"/><line style="stroke:#181818;stroke-width:1.0;" x1="280.5" x2="321.5" y1="170.8594" y2="170.8594"/><polygon fill="#181818" points="290.5,166.8594,280.5,170.8594,290.5,174.8594,286.5,170.8594" style="stroke:#181818;stroke-width:1.0;"/><text fill="#000000" font-family="sans-serif" font-size="13" lengthAdjust="spacing" textLength="227" x="286.5" y="152.7935">Generate Discharge Medication List</text><path d="M187.5,185.8594 L264.5,185.8594 L264.5,192.9922 L254.5,202.9922 L187.5,202.9922 L187.5,185.8594 " fill="#EEEEEE" style="stroke:#000000;stroke-width:1.5;"/><rect fill="none" height="59.2656" style="stroke:#000000;stroke-width:1.5;" width="318" x="187.5" y="185.8594"/><text fill="#000000" font-family="sans-serif" font-size="13" font-weight="bold" lengthAdjust="spacing" textLength="32" x="202.5" y="198.9263">loop</text><text fill="#000000" font-family="sans-serif" font-size="11" font-weight="bold" lengthAdjust="spacing" textLength="138" x="279.5" y="198.0698">[for each medication]</text><line style="stroke:#181818;stroke-width:1.0;" x1="279.5" x2="321.5" y1="224.125" y2="224.125"/><line style="stroke:#181818;stroke-width:1.0;" x1="321.5" x2="321.5" y1="224.125" y2="237.125"/><line style="stroke:#181818;stroke-width:1.0;" x1="280.5" x2="321.5" y1="237.125" y2="237.125"/><polygon fill="#181818" points="290.5,233.125,280.5,237.125,290.5,241.125,286.5,237.125" style="stroke:#181818;stroke-width:1.0;"/><text fill="#000000" font-family="sans-serif" font-size="13" lengthAdjust="spacing" textLength="207" x="286.5" y="219.0591">Add medication to Discharge list</text><path d="M187.5,259.125 L251.5,259.125 L251.5,266.2578 L241.5,276.2578 L187.5,276.2578 L187.5,259.125 " fill="#EEEEEE" style="stroke:#000000;stroke-width:1.5;"/><rect fill="none" height="134.1406" style="stroke:#000000;stroke-width:1.5;" width="760" x="187.5" y="259.125"/><text fill="#000000" font-family="sans-serif" font-size="13" font-weight="bold" lengthAdjust="spacing" textLength="19" x="202.5" y="272.1919">alt</text><text fill="#000000" font-family="sans-serif" font-size="11" font-weight="bold" lengthAdjust="spacing" textLength="133" x="266.5" y="271.3354">[Connection to HDM]</text><polygon fill="#181818" points="602.5,293.3906,612.5,297.3906,602.5,301.3906,606.5,297.3906" style="stroke:#181818;stroke-width:1.0;"/><line style="stroke:#181818;stroke-width:1.0;" x1="279.5" x2="608.5" y1="297.3906" y2="297.3906"/><text fill="#000000" font-family="sans-serif" font-size="13" lengthAdjust="spacing" textLength="311" x="286.5" y="292.3247">POST SMP-Bundle-Tx (Discharge Medication List)</text><line style="stroke:#000000;stroke-width:1.0;stroke-dasharray:2.0,2.0;" x1="187.5" x2="947.5" y1="306.3906" y2="306.3906"/><text fill="#000000" font-family="sans-serif" font-size="11" font-weight="bold" lengthAdjust="spacing" textLength="130" x="192.5" y="316.6011">[Connection to HHA]</text><polygon fill="#181818" points="739.5,337.3281,749.5,341.3281,739.5,345.3281,743.5,341.3281" style="stroke:#181818;stroke-width:1.0;"/><line style="stroke:#181818;stroke-width:1.0;" x1="279.5" x2="745.5" y1="341.3281" y2="341.3281"/><text fill="#000000" font-family="sans-serif" font-size="13" lengthAdjust="spacing" textLength="311" x="286.5" y="336.2622">POST SMP-Bundle-Tx (Discharge Medication List)</text><line style="stroke:#000000;stroke-width:1.0;stroke-dasharray:2.0,2.0;" x1="187.5" x2="947.5" y1="350.3281" y2="350.3281"/><text fill="#000000" font-family="sans-serif" font-size="11" font-weight="bold" lengthAdjust="spacing" textLength="241" x="192.5" y="360.5386">[Connection to Community Pharmacy]</text><polygon fill="#181818" points="879.5,381.2656,889.5,385.2656,879.5,389.2656,883.5,385.2656" style="stroke:#181818;stroke-width:1.0;"/><line style="stroke:#181818;stroke-width:1.0;" x1="279.5" x2="885.5" y1="385.2656" y2="385.2656"/><text fill="#000000" font-family="sans-serif" font-size="13" lengthAdjust="spacing" textLength="311" x="286.5" y="380.1997">POST SMP-Bundle-Tx (Discharge Medication List)</text><!--SRC=[hP8nJyCm48Lt_ufJ9nZAmjO1AKq86KY9QCOkXtrDh3fsP3ig_VTSKngbI0n8ZBvxxxlpiyD1snuzTk0fzCu6AYa4R6XDnXqJxzqHeXz8284oEW-BxIRVsHGzGKtOBG03fBLWHjHIzsWZImxQ65Am6NpGje4SfJOwddRskNWV7GmH2YD-O21O58Gcjf1nOMTBj3pUZx8YAs_9XUi8lkN945ldRx15aTpgKzTrWnqrLOk-GtcwR5m9aTQmV3flieACzjeITAIqnAWv1jZpNPKEabqD2LPDuXUov34IPDSsb9CHNdM80i0uruyCGjdEmDm2cDCIfMPjY6w6DHSMMSNfcmYfivRaLNSEPqRZumggjsqDsx9QhWUh32thJxZxTSrx8SXm_Z-mdE4SMoJ_WfrU0guFCP-ILdyUCgOYiHzBkMu6_f7fm-DgH4w-Bm00]--></g></svg>