<svg xmlns="http://www.w3.org/2000/svg" xmlns:xlink="http://www.w3.org/1999/xlink" contentStyleType="text/css" height="465px" preserveAspectRatio="none" style="width:494px;height:465px;background:#FFFFFF;" version="1.1" viewBox="0 0 494 465" width="494px" zoomAndPan="magnify"><defs/><g><text fill="#000000" font-family="sans-serif" font-size="14" lengthAdjust="spacing" textLength="226" x="135.75" y="453.5107">Figure D.2: Return to Home Care</text><rect fill="none" height="157.0625" style="stroke:#000000;stroke-width:1.5;" width="446.5" x="42" y="143.7266"/><line style="stroke:#181818;stroke-width:0.5;stroke-dasharray:5.0,5.0;" x1="45" x2="45" y1="97.5938" y2="346.9219"/><line style="stroke:#181818;stroke-width:0.5;stroke-dasharray:5.0,5.0;" x1="253" x2="253" y1="97.5938" y2="346.9219"/><line style="stroke:#181818;stroke-width:0.5;stroke-dasharray:5.0,5.0;" x1="435.5" x2="435.5" y1="97.5938" y2="346.9219"/><text fill="#000000" font-family="sans-serif" font-size="14" lengthAdjust="spacing" textLength="29" x="28" y="77.9951">HHA</text><text fill="#000000" font-family="sans-serif" font-size="14" lengthAdjust="spacing" textLength="75" x="5" y="94.292">Care Team</text><ellipse cx="45.5" cy="13.5" fill="#E2E2F0" rx="8" ry="8" style="stroke:#181818;stroke-width:0.5;"/><path d="M45.5,21.5 L45.5,48.5 M32.5,29.5 L58.5,29.5 M45.5,48.5 L32.5,63.5 M45.5,48.5 L58.5,63.5 " fill="none" style="stroke:#181818;stroke-width:0.5;"/><text fill="#000000" font-family="sans-serif" font-size="14" lengthAdjust="spacing" textLength="29" x="28" y="358.917">HHA</text><text fill="#000000" font-family="sans-serif" font-size="14" lengthAdjust="spacing" textLength="75" x="5" y="375.2139">Care Team</text><ellipse cx="45.5" cy="387.0156" fill="#E2E2F0" rx="8" ry="8" style="stroke:#181818;stroke-width:0.5;"/><path d="M45.5,395.0156 L45.5,422.0156 M32.5,403.0156 L58.5,403.0156 M45.5,422.0156 L32.5,437.0156 M45.5,422.0156 L58.5,437.0156 " fill="none" style="stroke:#181818;stroke-width:0.5;"/><rect fill="#E2E2F0" height="46.5938" rx="2.5" ry="2.5" style="stroke:#181818;stroke-width:0.5;" width="43" x="232" y="50"/><text fill="#000000" font-family="sans-serif" font-size="14" lengthAdjust="spacing" textLength="29" x="239" y="69.9951">HHA</text><text fill="#000000" font-family="sans-serif" font-size="14" lengthAdjust="spacing" textLength="29" x="239" y="86.292">EHR</text><rect fill="#E2E2F0" height="46.5938" rx="2.5" ry="2.5" style="stroke:#181818;stroke-width:0.5;" width="43" x="232" y="345.9219"/><text fill="#000000" font-family="sans-serif" font-size="14" lengthAdjust="spacing" textLength="29" x="239" y="365.917">HHA</text><text fill="#000000" font-family="sans-serif" font-size="14" lengthAdjust="spacing" textLength="29" x="239" y="382.2139">EHR</text><text fill="#000000" font-family="sans-serif" font-size="14" lengthAdjust="spacing" textLength="80" x="392.5" y="77.9951">Health Data</text><text fill="#000000" font-family="sans-serif" font-size="14" lengthAdjust="spacing" textLength="60" x="402.5" y="94.292">Manager</text><path d="M417.5,29 C417.5,19 435.5,19 435.5,19 C435.5,19 453.5,19 453.5,29 L453.5,55 C453.5,65 435.5,65 435.5,65 C435.5,65 417.5,65 417.5,55 L417.5,29 " fill="#E2E2F0" style="stroke:#181818;stroke-width:1.5;"/><path d="M417.5,29 C417.5,39 435.5,39 435.5,39 C435.5,39 453.5,39 453.5,29 " fill="none" style="stroke:#181818;stroke-width:1.5;"/><text fill="#000000" font-family="sans-serif" font-size="14" lengthAdjust="spacing" textLength="80" x="392.5" y="358.917">Health Data</text><text fill="#000000" font-family="sans-serif" font-size="14" lengthAdjust="spacing" textLength="60" x="402.5" y="375.2139">Manager</text><path d="M417.5,388.5156 C417.5,378.5156 435.5,378.5156 435.5,378.5156 C435.5,378.5156 453.5,378.5156 453.5,388.5156 L453.5,414.5156 C453.5,424.5156 435.5,424.5156 435.5,424.5156 C435.5,424.5156 417.5,424.5156 417.5,414.5156 L417.5,388.5156 " fill="#E2E2F0" style="stroke:#181818;stroke-width:1.5;"/><path d="M417.5,388.5156 C417.5,398.5156 435.5,398.5156 435.5,398.5156 C435.5,398.5156 453.5,398.5156 453.5,388.5156 " fill="none" style="stroke:#181818;stroke-width:1.5;"/><polygon fill="#181818" points="241.5,124.7266,251.5,128.7266,241.5,132.7266,245.5,128.7266" style="stroke:#181818;stroke-width:1.0;"/><line style="stroke:#181818;stroke-width:1.0;" x1="45.5" x2="247.5" y1="128.7266" y2="128.7266"/><text fill="#000000" font-family="sans-serif" font-size="13" lengthAdjust="spacing" textLength="154" x="52.5" y="123.6606">Request medication info</text><path d="M42,143.7266 L106,143.7266 L106,150.8594 L96,160.8594 L42,160.8594 L42,143.7266 " fill="#EEEEEE" style="stroke:#000000;stroke-width:1.5;"/><rect fill="none" height="157.0625" style="stroke:#000000;stroke-width:1.5;" width="446.5" x="42" y="143.7266"/><text fill="#000000" font-family="sans-serif" font-size="13" font-weight="bold" lengthAdjust="spacing" textLength="19" x="57" y="156.7935">alt</text><text fill="#000000" font-family="sans-serif" font-size="11" font-weight="bold" lengthAdjust="spacing" textLength="193" x="121" y="155.937">[Previous Lists are requested]</text><polygon fill="#181818" points="423.5,218.8242,433.5,222.8242,423.5,226.8242,427.5,222.8242" style="stroke:#181818;stroke-width:1.0;"/><line style="stroke:#181818;stroke-width:1.0;" x1="253.5" x2="429.5" y1="222.8242" y2="222.8242"/><text fill="#000000" font-family="sans-serif" font-size="13" lengthAdjust="spacing" textLength="158" x="260.5" y="217.7583">GET SMP-Bundle (Query)</text><path d="M52,165.8594 L52,265.8594 L248,265.8594 L248,175.8594 L238,165.8594 L52,165.8594 " fill="#FEFFDD" style="stroke:#181818;stroke-width:0.5;"/><path d="M238,165.8594 L238,175.8594 L248,175.8594 L238,165.8594 " fill="#FEFFDD" style="stroke:#181818;stroke-width:0.5;"/><text fill="#000000" font-family="sans-serif" font-size="13" lengthAdjust="spacing" textLength="121" x="58" y="182.9263">The SNF Discharge</text><text fill="#000000" font-family="sans-serif" font-size="13" lengthAdjust="spacing" textLength="147" x="58" y="198.0591">Medication List may be</text><text fill="#000000" font-family="sans-serif" font-size="13" lengthAdjust="spacing" textLength="156" x="58" y="213.1919">available at the HHA but</text><text fill="#000000" font-family="sans-serif" font-size="13" lengthAdjust="spacing" textLength="148" x="58" y="228.3247">other lists including the</text><text fill="#000000" font-family="sans-serif" font-size="13" lengthAdjust="spacing" textLength="163" x="58" y="243.4575">Discontinued Medications</text><text fill="#000000" font-family="sans-serif" font-size="13" lengthAdjust="spacing" textLength="175" x="58" y="258.5903">may form part of this query</text><polygon fill="#181818" points="264.5,271.6563,254.5,275.6563,264.5,279.6563,260.5,275.6563" style="stroke:#181818;stroke-width:1.0;"/><line style="stroke:#181818;stroke-width:1.0;" x1="258.5" x2="434.5" y1="275.6563" y2="275.6563"/><text fill="#000000" font-family="sans-serif" font-size="13" lengthAdjust="spacing" textLength="155" x="270.5" y="288.7231">existing Medication Lists</text><polygon fill="#181818" points="241.5,324.9219,251.5,328.9219,241.5,332.9219,245.5,328.9219" style="stroke:#181818;stroke-width:1.0;"/><line style="stroke:#181818;stroke-width:1.0;" x1="45.5" x2="247.5" y1="328.9219" y2="328.9219"/><text fill="#000000" font-family="sans-serif" font-size="13" lengthAdjust="spacing" textLength="184" x="52.5" y="323.856">Revise orders (as necessary)</text><!--SRC=[NLAnJWCn3Dtp5HPJ6Sh0Y10IxRLqu13G6xkuTsuRSUSKnodqxt5o213PulUUtukT-ERvY8832CLZu4WrnOXxcb4VFkv5mWUe978EMmq25wlL_ORdA0GDuN01667UE6kXllL7PFscB5Ql1RIBwr1nYv4C8kpr09KLDbmZcv6CjAfspiqRcDvboGsyqdkYg31GvrjK7nWyxuBbw1MUXKu-f0YFFcg4d4P6FdKEx5YBqgcgR-1XqS2wVfxE4dSzmUGbaPml2us34lIqqt9h3WJhfoLKFhO7b3sLQlqR8Bl1W6VOZX2UqFUujQQeeAREjjiqTWjM4EXBGCzjdphF-ymgQFO8h9uJTNyiOW6pnIx807ci47QcyX7US-w24tSb-izJRwVZK-dJxBBDlz3HcUJVU4_U5XAa8uamiGqmjNdpUJIknMFHBlq-sMohg-kiq2GC6c0L1eBy1Ru0]--></g></svg>