<svg xmlns="http://www.w3.org/2000/svg" xmlns:xlink="http://www.w3.org/1999/xlink" contentStyleType="text/css" height="622px" preserveAspectRatio="none" style="width:653px;height:622px;background:#FFFFFF;" version="1.1" viewBox="0 0 653 622" width="653px" zoomAndPan="magnify"><defs/><g><text fill="#000000" font-family="sans-serif" font-size="14" lengthAdjust="spacing" textLength="280" x="188.25" y="610.1748">Figure E.2: Fill Medications in Community</text><line style="stroke:#181818;stroke-width:0.5;stroke-dasharray:5.0,5.0;" x1="47" x2="47" y1="97.5938" y2="503.5859"/><line style="stroke:#181818;stroke-width:0.5;stroke-dasharray:5.0,5.0;" x1="263.5" x2="263.5" y1="97.5938" y2="503.5859"/><line style="stroke:#181818;stroke-width:0.5;stroke-dasharray:5.0,5.0;" x1="444.5" x2="444.5" y1="97.5938" y2="503.5859"/><line style="stroke:#181818;stroke-width:0.5;stroke-dasharray:5.0,5.0;" x1="519.5" x2="519.5" y1="97.5938" y2="503.5859"/><line style="stroke:#181818;stroke-width:0.5;stroke-dasharray:5.0,5.0;" x1="616.5" x2="616.5" y1="97.5938" y2="503.5859"/><text fill="#000000" font-family="sans-serif" font-size="14" lengthAdjust="spacing" textLength="78" x="5" y="77.9951">Community</text><text fill="#000000" font-family="sans-serif" font-size="14" lengthAdjust="spacing" textLength="76" x="6" y="94.292">Pharmacist</text><ellipse cx="47" cy="13.5" fill="#E2E2F0" rx="8" ry="8" style="stroke:#181818;stroke-width:0.5;"/><path d="M47,21.5 L47,48.5 M34,29.5 L60,29.5 M47,48.5 L34,63.5 M47,48.5 L60,63.5 " fill="none" style="stroke:#181818;stroke-width:0.5;"/><text fill="#000000" font-family="sans-serif" font-size="14" lengthAdjust="spacing" textLength="78" x="5" y="515.5811">Community</text><text fill="#000000" font-family="sans-serif" font-size="14" lengthAdjust="spacing" textLength="76" x="6" y="531.8779">Pharmacist</text><ellipse cx="47" cy="543.6797" fill="#E2E2F0" rx="8" ry="8" style="stroke:#181818;stroke-width:0.5;"/><path d="M47,551.6797 L47,578.6797 M34,559.6797 L60,559.6797 M47,578.6797 L34,593.6797 M47,578.6797 L60,593.6797 " fill="none" style="stroke:#181818;stroke-width:0.5;"/><rect fill="#E2E2F0" height="46.5938" rx="2.5" ry="2.5" style="stroke:#181818;stroke-width:0.5;" width="81" x="223.5" y="50"/><text fill="#000000" font-family="sans-serif" font-size="14" lengthAdjust="spacing" textLength="67" x="230.5" y="69.9951">Pharmacy</text><text fill="#000000" font-family="sans-serif" font-size="14" lengthAdjust="spacing" textLength="51" x="238.5" y="86.292">System</text><rect fill="#E2E2F0" height="46.5938" rx="2.5" ry="2.5" style="stroke:#181818;stroke-width:0.5;" width="81" x="223.5" y="502.5859"/><text fill="#000000" font-family="sans-serif" font-size="14" lengthAdjust="spacing" textLength="67" x="230.5" y="522.5811">Pharmacy</text><text fill="#000000" font-family="sans-serif" font-size="14" lengthAdjust="spacing" textLength="51" x="238.5" y="538.8779">System</text><rect fill="#E2E2F0" height="46.5938" rx="2.5" ry="2.5" style="stroke:#181818;stroke-width:0.5;" width="43" x="423.5" y="50"/><text fill="#000000" font-family="sans-serif" font-size="14" lengthAdjust="spacing" textLength="29" x="430.5" y="69.9951">HHA</text><text fill="#000000" font-family="sans-serif" font-size="14" lengthAdjust="spacing" textLength="29" x="430.5" y="86.292">EHR</text><rect fill="#E2E2F0" height="46.5938" rx="2.5" ry="2.5" style="stroke:#181818;stroke-width:0.5;" width="43" x="423.5" y="502.5859"/><text fill="#000000" font-family="sans-serif" font-size="14" lengthAdjust="spacing" textLength="29" x="430.5" y="522.5811">HHA</text><text fill="#000000" font-family="sans-serif" font-size="14" lengthAdjust="spacing" textLength="29" x="430.5" y="538.8779">EHR</text><text fill="#000000" font-family="sans-serif" font-size="14" lengthAdjust="spacing" textLength="80" x="476.5" y="77.9951">Health Data</text><text fill="#000000" font-family="sans-serif" font-size="14" lengthAdjust="spacing" textLength="60" x="486.5" y="94.292">Manager</text><path d="M501.5,29 C501.5,19 519.5,19 519.5,19 C519.5,19 537.5,19 537.5,29 L537.5,55 C537.5,65 519.5,65 519.5,65 C519.5,65 501.5,65 501.5,55 L501.5,29 " fill="#E2E2F0" style="stroke:#181818;stroke-width:1.5;"/><path d="M501.5,29 C501.5,39 519.5,39 519.5,39 C519.5,39 537.5,39 537.5,29 " fill="none" style="stroke:#181818;stroke-width:1.5;"/><text fill="#000000" font-family="sans-serif" font-size="14" lengthAdjust="spacing" textLength="80" x="476.5" y="515.5811">Health Data</text><text fill="#000000" font-family="sans-serif" font-size="14" lengthAdjust="spacing" textLength="60" x="486.5" y="531.8779">Manager</text><path d="M501.5,545.1797 C501.5,535.1797 519.5,535.1797 519.5,535.1797 C519.5,535.1797 537.5,535.1797 537.5,545.1797 L537.5,571.1797 C537.5,581.1797 519.5,581.1797 519.5,581.1797 C519.5,581.1797 501.5,581.1797 501.5,571.1797 L501.5,545.1797 " fill="#E2E2F0" style="stroke:#181818;stroke-width:1.5;"/><path d="M501.5,545.1797 C501.5,555.1797 519.5,555.1797 519.5,555.1797 C519.5,555.1797 537.5,555.1797 537.5,545.1797 " fill="none" style="stroke:#181818;stroke-width:1.5;"/><text fill="#000000" font-family="sans-serif" font-size="14" lengthAdjust="spacing" textLength="65" x="581.5" y="94.292">Caregiver</text><ellipse cx="617" cy="29.7969" fill="#E2E2F0" rx="8" ry="8" style="stroke:#181818;stroke-width:0.5;"/><path d="M617,37.7969 L617,64.7969 M604,45.7969 L630,45.7969 M617,64.7969 L604,79.7969 M617,64.7969 L630,79.7969 " fill="none" style="stroke:#181818;stroke-width:0.5;"/><text fill="#000000" font-family="sans-serif" font-size="14" lengthAdjust="spacing" textLength="65" x="581.5" y="515.5811">Caregiver</text><ellipse cx="617" cy="527.3828" fill="#E2E2F0" rx="8" ry="8" style="stroke:#181818;stroke-width:0.5;"/><path d="M617,535.3828 L617,562.3828 M604,543.3828 L630,543.3828 M617,562.3828 L604,577.3828 M617,562.3828 L630,577.3828 " fill="none" style="stroke:#181818;stroke-width:0.5;"/><polygon fill="#181818" points="275,157.9922,265,161.9922,275,165.9922,271,161.9922" style="stroke:#181818;stroke-width:1.0;"/><line style="stroke:#181818;stroke-width:1.0;" x1="269" x2="444" y1="161.9922" y2="161.9922"/><text fill="#000000" font-family="sans-serif" font-size="13" lengthAdjust="spacing" textLength="119" x="281" y="156.9263">Home Medications</text><path d="M450,112.5938 L450,197.5938 L640,197.5938 L640,122.5938 L630,112.5938 L450,112.5938 " fill="#FEFFDD" style="stroke:#181818;stroke-width:0.5;"/><path d="M630,112.5938 L630,122.5938 L640,122.5938 L630,112.5938 " fill="#FEFFDD" style="stroke:#181818;stroke-width:0.5;"/><text fill="#000000" font-family="sans-serif" font-size="13" lengthAdjust="spacing" textLength="169" x="456" y="129.6606">Medication Orders and the</text><text fill="#000000" font-family="sans-serif" font-size="13" lengthAdjust="spacing" textLength="138" x="456" y="144.7935">Home Medication List</text><text fill="#000000" font-family="sans-serif" font-size="13" lengthAdjust="spacing" textLength="141" x="456" y="159.9263">may be pushed to the</text><text fill="#000000" font-family="sans-serif" font-size="13" lengthAdjust="spacing" textLength="160" x="456" y="175.0591">community pharmacy on</text><text fill="#000000" font-family="sans-serif" font-size="13" lengthAdjust="spacing" textLength="126" x="456" y="190.1919">discharge from SNF</text><polygon fill="#181818" points="252,220.3906,262,224.3906,252,228.3906,256,224.3906" style="stroke:#181818;stroke-width:1.0;"/><line style="stroke:#181818;stroke-width:1.0;" x1="47" x2="258" y1="224.3906" y2="224.3906"/><text fill="#000000" font-family="sans-serif" font-size="13" lengthAdjust="spacing" textLength="154" x="54" y="219.3247">Request medication info</text><polygon fill="#181818" points="252,249.5234,262,253.5234,252,257.5234,256,253.5234" style="stroke:#181818;stroke-width:1.0;"/><line style="stroke:#181818;stroke-width:1.0;" x1="47" x2="258" y1="253.5234" y2="253.5234"/><text fill="#000000" font-family="sans-serif" font-size="13" lengthAdjust="spacing" textLength="189" x="54" y="248.4575">Request Prior medication lists</text><polygon fill="#181818" points="507.5,278.6563,517.5,282.6563,507.5,286.6563,511.5,282.6563" style="stroke:#181818;stroke-width:1.0;"/><line style="stroke:#181818;stroke-width:1.0;" x1="264" x2="513.5" y1="282.6563" y2="282.6563"/><text fill="#000000" font-family="sans-serif" font-size="13" lengthAdjust="spacing" textLength="210" x="271" y="277.5903">Query - MedicationList by Patient</text><polygon fill="#181818" points="275,307.7891,265,311.7891,275,315.7891,271,311.7891" style="stroke:#181818;stroke-width:1.0;"/><line style="stroke:#181818;stroke-width:1.0;" x1="269" x2="518.5" y1="311.7891" y2="311.7891"/><text fill="#000000" font-family="sans-serif" font-size="13" lengthAdjust="spacing" textLength="98" x="281" y="306.7231">MedicationLists</text><polygon fill="#181818" points="58,336.9219,48,340.9219,58,344.9219,54,340.9219" style="stroke:#181818;stroke-width:1.0;"/><line style="stroke:#181818;stroke-width:1.0;" x1="52" x2="263" y1="340.9219" y2="340.9219"/><text fill="#000000" font-family="sans-serif" font-size="13" lengthAdjust="spacing" textLength="118" x="64" y="335.856">Medication History</text><line style="stroke:#181818;stroke-width:1.0;" x1="47" x2="89" y1="370.0547" y2="370.0547"/><line style="stroke:#181818;stroke-width:1.0;" x1="89" x2="89" y1="370.0547" y2="383.0547"/><line style="stroke:#181818;stroke-width:1.0;" x1="48" x2="89" y1="383.0547" y2="383.0547"/><polygon fill="#181818" points="58,379.0547,48,383.0547,58,387.0547,54,383.0547" style="stroke:#181818;stroke-width:1.0;"/><text fill="#000000" font-family="sans-serif" font-size="13" lengthAdjust="spacing" textLength="159" x="54" y="364.9888">medication reconciliation</text><polygon fill="#181818" points="252,408.1875,262,412.1875,252,416.1875,256,412.1875" style="stroke:#181818;stroke-width:1.0;"/><line style="stroke:#181818;stroke-width:1.0;" x1="47" x2="258" y1="412.1875" y2="412.1875"/><text fill="#000000" font-family="sans-serif" font-size="13" lengthAdjust="spacing" textLength="193" x="54" y="407.1216">Make order recommendations</text><polygon fill="#181818" points="433,437.3203,443,441.3203,433,445.3203,437,441.3203" style="stroke:#181818;stroke-width:1.0;"/><line style="stroke:#181818;stroke-width:1.0;" x1="264" x2="439" y1="441.3203" y2="441.3203"/><text fill="#000000" font-family="sans-serif" font-size="13" lengthAdjust="spacing" textLength="157" x="271" y="436.2544">Order recommendations</text><polygon fill="#181818" points="456,481.5859,446,485.5859,456,489.5859,452,485.5859" style="stroke:#181818;stroke-width:1.0;"/><line style="stroke:#181818;stroke-width:1.0;" x1="450" x2="616" y1="485.5859" y2="485.5859"/><text fill="#000000" font-family="sans-serif" font-size="13" lengthAdjust="spacing" textLength="125" x="462" y="465.3872">Request Medication</text><text fill="#000000" font-family="sans-serif" font-size="13" lengthAdjust="spacing" textLength="148" x="462" y="480.52">information from portal</text><!--SRC=[RP9BSwim38Nt-XMQxDj5brbq9fS-M9HxQRFDHZ4gU89jhcpQuTzNK4BeOuTyFgIZOyUJzHq9EHIENV2H2uwHQlx3RNZVYOHtJD8p09aK13TPSAxtDWq7NpOaZeoDQOCKCIj1EoLhR4S-uMQM5TmFCR6ReBBOVwNoV7Vmz_dBf6e15IKwKcILcDhKu9qU77n1Nbt99tPNB7P8kBPliv0z0cWFlBeT1sqn3uwnuCeQIbQN0nyIezYwIN0vndzIiKGaNs5g6BxzXK-w8JWQyCZOzR5XnS94cdCOsCtBel9GsMYqhXbV9JZS_tq0rjxZS82iNEozyF-UOq9tcMNzQ_YLASNglYkoLLSHGA6HrKYs-Dop37YryZvQn-E0fLRi4oYsTFvAnNEdh5nBcAiMP9WjZUBAWx09tjZMJkNQTa4dnZ3cEa7EQG3p7PmTvxljP_8_2CWU5-Ay_yNImOyXQTgJXIdXBaYY5i1GDnq-sBeNnllhcwr-j-tw3MZ4k3pY3m00]--></g></svg>